# xmcd CD database file
#
# Track frame offsets:
#	182
#	16357
#	35112
#	54057
#	71480
#	87100
#	104347
#	118280
#	134777
#	152390
#	164627
#	180057
#	195262
#	209552
#	231880
#	247047
#	266167
#	283347
#
# Disc length: 4040 seconds
#
# Revision: 1
# Processed by: cddbd v1.5.1PL0 Copyright (c) Steve Scherf et al.
# Submitted via: CDex 1.51
#
DISCID=050fc612
DTITLE=Various Artist - Gefühle - Vol.19 - Die schönsten romantischen Schlager
DYEAR=1900
DGENRE=Oldies
TTITLE0=Romantic Flamingos - Sommernacht in Rom
TTITLE1=Andrea Jürgens - Wie am allerersten Tag
TTITLE2=Roger Whittaker - Schön war die Zeit
TTITLE3=Claudia and Chris Roberts - Ich vermiss' dich
TTITLE4=Matthias Reim - Du fehlst mir
TTITLE5=Jürgen Renfordt - Für immer und ewig
TTITLE6=Brunner and Brunner - Weil dein Herz dich verrät
TTITLE7=Klaus Densow - Der Himmer vermisst einen Engel
TTITLE8=Andreas Martin - Du kommst nicht zurück
TTITLE9=Die Flippers - Je t'aime heißt:"Ich liebe dich"
TTITLE10=Daliah Lavi - Immer wenn es dunkel wird
TTITLE11=Ibo - Hunger auf dich
TTITLE12=Margot Eskens - Such mit mir die Zärtlichkeit
TTITLE13=Andy Borg - Du wirst wieder Tanzen gehn
TTITLE14=Roy Black - Ich träume mich zu dir
TTITLE15=Nicole - Und ich denke schon wieder an dich
TTITLE16=Albin Berger - Einfach da zu sein
TTITLE17=Roland Kaiser - Viva l'amor
EXTD=
EXTT0=
EXTT1=
EXTT2=
EXTT3=
EXTT4=
EXTT5=
EXTT6=
EXTT7=
EXTT8=
EXTT9=
EXTT10=
EXTT11=
EXTT12=
EXTT13=
EXTT14=
EXTT15=
EXTT16=
EXTT17=
PLAYORDER=
